M48
; DRILL file {KiCad 9.0.6} date 2025-11-27T07:56:08+0100
; FORMAT={-:-/ absolute / metric / decimal}
; #@! TF.CreationDate,2025-11-27T07:56:08+01:00
; #@! TF.GenerationSoftware,Kicad,Pcbnew,9.0.6
; #@! TF.FileFunction,MixedPlating,1,2
FMAT,2
METRIC
; #@! TA.AperFunction,Plated,PTH,ComponentDrill
T1C0.800
; #@! TA.AperFunction,Plated,PTH,ComponentDrill
T2C1.000
; #@! TA.AperFunction,Plated,PTH,ComponentDrill
T3C1.100
; #@! TA.AperFunction,Plated,PTH,ComponentDrill
T4C1.700
%
G90
G05
T1
X146.852Y-127.127
X149.352Y-127.127
X152.38Y-95.332
X152.38Y-118.192
X152.44Y-140.97
X154.92Y-95.332
X154.92Y-118.192
X157.44Y-140.97
X157.46Y-95.332
X157.46Y-118.192
X160.0Y-95.332
X160.0Y-118.192
X162.54Y-95.332
X162.54Y-118.192
X165.08Y-95.332
X165.08Y-118.192
X167.62Y-95.332
X167.62Y-118.192
X170.16Y-95.332
X170.16Y-118.192
X173.482Y-143.51
X175.982Y-143.51
X180.34Y-122.555
X180.34Y-130.175
T2
X161.671Y-133.858
X161.671Y-138.938
X161.671Y-141.478
X161.671Y-144.018
X166.751Y-133.858
X166.751Y-138.938
X166.751Y-141.478
X166.751Y-144.018
T3
X147.955Y-133.35
X147.955Y-140.97
X153.924Y-128.143
X153.924Y-135.763
X160.147Y-129.794
X167.767Y-129.794
T4
X150.345Y-145.554
X154.305Y-145.554
X172.339Y-135.001
X176.299Y-135.001
X180.259Y-135.001
M30
